<?xml version="1.0" encoding="UTF-8" standalone="no"?>
<svg width="58px" height="54px" viewBox="0 0 58 54" version="1.1" xmlns="http://www.w3.org/2000/svg" xmlns:xlink="http://www.w3.org/1999/xlink">
    <!-- Generator: Sketch 41.2 (35397) - http://www.bohemiancoding.com/sketch -->
    <title>Shop</title>
    <desc>Created with Sketch.</desc>
    <defs></defs>
    <g id="Page-1" stroke="none" stroke-width="1" fill="none" fill-rule="evenodd">
        <g id="Shop" fill="#000000">
            <rect id="Rectangle-path" x="6.6" y="27.3" width="3" height="23.8"></rect>
            <rect id="Rectangle-path" x="48.8" y="27.3" width="3" height="23.8"></rect>
            <rect id="Rectangle-path" x="2.2" y="50.6" width="54" height="3"></rect>
            <path d="M47.2,28.8 C43.4,28.8 40,26.8 38.2,23.7 C36.4,26.8 33,28.8 29.2,28.8 C25.4,28.8 22,26.8 20.2,23.7 C18.4,26.8 15,28.8 11.2,28.8 C5.4,28.8 0.7,24.1 0.7,18.3 L0.7,18 L7.8,0.4 L50.4,0.4 L57.6,18 L57.6,18.3 C57.7,24.1 53,28.8 47.2,28.8 Z M39.7,18.3 C39.7,22.4 43.1,25.8 47.2,25.8 C51.2,25.8 54.5,22.6 54.7,18.6 L48.5,3.4 L9.9,3.4 L3.7,18.6 C3.8,22.6 7.2,25.8 11.2,25.8 C15.3,25.8 18.7,22.4 18.7,18.3 L21.7,18.3 C21.7,22.4 25.1,25.8 29.2,25.8 C33.3,25.8 36.7,22.4 36.7,18.3 L39.7,18.3 Z" id="Shape"></path>
        </g>
    </g>
</svg>